<svg xmlns="http://www.w3.org/2000/svg" width="430" height="650" viewBox="0 0 430 650">
  <defs>
    <linearGradient id="jacket" x1="0" y1="0" x2="1" y2="1"><stop stop-color="#ee8e75"/><stop offset="1" stop-color="#cf5d56"/></linearGradient>
    <linearGradient id="pants" x1="0" y1="0" x2="1" y2="1"><stop stop-color="#354c63"/><stop offset="1" stop-color="#182a3d"/></linearGradient>
    <linearGradient id="skin" x1="0" y1="0" x2="1" y2="1"><stop stop-color="#d99572"/><stop offset="1" stop-color="#b96d58"/></linearGradient>
    <filter id="shadow" x="-30%" y="-30%" width="160%" height="160%"><feDropShadow dx="0" dy="15" stdDeviation="14" flood-color="#203248" flood-opacity=".16"/></filter>
  </defs>
  <g filter="url(#shadow)">
    <path d="M124 391c-9 66-3 119-20 177l-31 42c-6 8-1 17 9 17h49c9 0 14-5 16-14l18-115 19 115c2 9 8 14 17 14h50c11 0 16-10 8-18l-34-45c-8-52-6-112-7-173z" fill="url(#pants)"/>
    <path d="M67 609c14-4 29-1 43 8l19 13c8 6 4 16-6 16H61c-12 0-17-13-8-22z" fill="#172838"/><path d="M205 609c14 0 28 6 41 17 8 7 4 18-7 18h-59c-11 0-15-10-8-18z" fill="#172838"/>
    <path d="M89 231c28-38 102-42 139 0 18 44 22 112 12 174-34 25-108 26-145-1-11-68-14-131-6-173z" fill="url(#jacket)"/>
    <path d="M144 235c15 19 31 22 47 0v95h-47z" fill="#f7f1e8" opacity=".92"/><path d="M127 252l-32 114 37 17 27-76 26 76 37-17-31-114z" fill="#e87868" opacity=".65"/>
    <path d="M150 196v39c16 11 32 9 47-2v-38z" fill="url(#skin)"/><ellipse cx="173" cy="163" rx="46" ry="55" fill="url(#skin)"/>
    <path d="M128 168c-3-37 17-68 55-69 34-2 57 25 52 69l-17-8-9-24c-18 20-44 30-76 30z" fill="#252b35"/><path d="M129 167c-9 30-4 50 6 61l8-37z" fill="#252b35"/><path d="M223 164c7 20 6 37-1 52" fill="none" stroke="#252b35" stroke-width="12" stroke-linecap="round"/>
    <circle cx="159" cy="171" r="3" fill="#543c3b"/><path d="M181 188c7 5 14 5 20 0" fill="none" stroke="#7d4c45" stroke-width="3" stroke-linecap="round"/>
    <path d="M102 253c-17 38-31 80-45 123-4 13 5 21 17 15 29-15 55-65 71-106z" fill="url(#skin)"/><path d="M217 254c27 23 45 50 61 76 7 12 1 22-11 19-22-6-49-40-68-72z" fill="url(#skin)"/>
    <g transform="rotate(-8 51 375)"><rect x="17" y="330" width="61" height="96" rx="11" fill="#1a3044"/><rect x="24" y="339" width="47" height="75" rx="6" fill="#e8f2f7"/><rect x="31" y="349" width="32" height="5" rx="3" fill="#9ccde2"/><rect x="31" y="362" width="24" height="5" rx="3" fill="#c0dce8"/><circle cx="47" cy="404" r="3" fill="#2b91d0"/></g>
    <path d="M246 286c21 48 32 113 25 193-23 17-57 18-82 1 0-77 12-145 57-194z" fill="#202f40"/><path d="M232 288c-9-35-40-50-59-21" fill="none" stroke="#202f40" stroke-width="9" stroke-linecap="round"/><path d="M210 374h44" stroke="#344c62" stroke-width="2"/>
  </g>
</svg>
